<?xml version="1.0" encoding="UTF-8"?>
<svg version="1.1" xmlns="http://www.w3.org/2000/svg" width="1024" height="1024">
<path d="M0 0 C2.95461408 0.21465145 3.88529366 0.869389 5.859375 3.1171875 C6.48328125 4.02726563 7.1071875 4.93734375 7.75 5.875 C8.44738281 6.87273437 9.14476562 7.87046875 9.86328125 8.8984375 C10.56839844 9.92195312 11.27351563 10.94546875 12 12 C19.76341494 22.93309322 28.09205119 33.17389881 37.2265625 42.98046875 C39.26297227 45.17140284 41.22105702 47.41682311 43.16796875 49.6875 C47.76743854 54.96524128 52.72900241 59.8747348 57.6875 64.8125 C58.63363154 65.76220246 59.57959603 66.71207136 60.52539062 67.66210938 C61.42837891 68.56380859 62.33136719 69.46550781 63.26171875 70.39453125 C64.48314575 71.61426636 64.48314575 71.61426636 65.72924805 72.85864258 C67.92244239 75.0190579 67.92244239 75.0190579 70.29614258 76.6628418 C70.85841553 77.104104 71.42068848 77.54536621 72 78 C72 78.66 72 79.32 72 80 C72.79857422 80.31904297 72.79857422 80.31904297 73.61328125 80.64453125 C76.9116336 82.51773627 79.46646894 85.08171635 82.1875 87.6875 C87.25174757 92.44542235 92.41024394 96.86300326 98 101 C98.84175781 101.63679688 99.68351563 102.27359375 100.55078125 102.9296875 C103.07370521 104.83496617 105.6054355 106.72780304 108.14208984 108.61474609 C109.46983857 109.60471275 110.79544955 110.59754917 112.11962891 111.59228516 C123.1362285 119.86596663 134.2858818 127.74420149 146 135 C146.75829102 135.47115234 147.51658203 135.94230469 148.29785156 136.42773438 C161.90012334 144.83722803 175.84538478 152.56328053 190 160 C191.00740234 160.53238281 192.01480469 161.06476563 193.05273438 161.61328125 C218.10619349 174.77235051 244.22744592 185.16492841 270.9140625 194.50390625 C290.91061728 201.50919465 310.94676981 208.68419982 330 218 C330.67756348 218.32919434 331.35512695 218.65838867 332.05322266 218.99755859 C345.40883451 225.56926396 357.09618715 233.83085202 367.890625 244.06640625 C369.84815219 246.03854323 369.84815219 246.03854323 372 247 C373.25264819 244.49470362 373.4667102 242.04248241 373.84790039 239.29174805 C379.83035803 196.71780976 395.73809643 150.03910396 421 115 C422.06154297 113.51113281 422.06154297 113.51113281 423.14453125 111.9921875 C430.40973936 102.04228777 438.36259096 92.72384407 448 85 C448.85851562 84.30390625 449.71703125 83.6078125 450.6015625 82.890625 C477.94484469 61.51716992 511.57028858 52.86715759 546.00073242 56.82275391 C576.06280066 60.63764645 603.64997362 73.68243791 622.69140625 97.7578125 C632.53315003 111.5795508 640.44430876 127.77357168 641 145 C642.0051062 145.3858728 642.0051062 145.3858728 643.03051758 145.77954102 C646.58449271 147.24022684 650.04683389 148.86967712 653.51171875 150.52734375 C654.59427444 151.04452721 654.59427444 151.04452721 655.69869995 151.57215881 C703.81870461 174.63451743 703.81870461 174.63451743 712 188 C711.67 188.99 711.34 189.98 711 191 C710.2565332 191.06993164 709.51306641 191.13986328 708.74707031 191.21191406 C667.79639449 194.92560026 667.79639449 194.92560026 632 214 C630.4840625 215.1446875 630.4840625 215.1446875 628.9375 216.3125 C626.91047847 217.86175156 626.91047847 217.86175156 626 220 C625.34 220 624.68 220 624 220 C623.72929688 220.56460938 623.45859375 221.12921875 623.1796875 221.7109375 C621.94549309 224.10576507 620.5586866 226.34447261 619.125 228.625 C608.77189348 245.8549875 605.00809843 268.98448095 608.49560547 288.81860352 C619.42675533 357.76527043 590.64510724 437.47452134 550.828125 492.4140625 C547.94836278 496.32567907 544.99633702 500.17716244 542 504 C541.23171875 504.98226563 540.4634375 505.96453125 539.671875 506.9765625 C535.07550474 512.71375848 530.19442732 518.14664744 525.16015625 523.4987793 C522.91260803 525.89243317 520.78014314 528.28415826 518.76953125 530.8828125 C517.89361328 531.93082031 517.89361328 531.93082031 517 533 C516.34 533 515.68 533 515 533 C514.7525 533.5775 514.505 534.155 514.25 534.75 C512.81700012 537.32939979 511.21575324 539.06121592 509 541 C508.34 541 507.68 541 507 541 C507 541.66 507 542.32 507 543 C505.6015625 544.41015625 505.6015625 544.41015625 503.625 546.0625 C500.47821792 548.73066312 497.40792312 551.45308248 494.375 554.25 C488.72815103 559.34340588 482.77709712 563.99966587 476.75830078 568.64013672 C475.09088342 569.9297111 473.43289227 571.23039842 471.77734375 572.53515625 C414.73132192 617.29828794 343.98006651 647.90848033 272.49658203 659.43261719 C270.20568414 659.80435624 267.91736611 660.19244732 265.63232422 660.59863281 C224.20479852 667.83172845 177.40872319 666.89793002 136 660 C134.0523877 659.68651611 134.0523877 659.68651611 132.06542969 659.36669922 C69.4905672 649.1407656 5.94697041 625.75676418 -42.875 584.5 C-43.47650879 583.99549316 -44.07801758 583.49098633 -44.69775391 582.97119141 C-48.87819107 579.3654268 -48.87819107 579.3654268 -50 576 C-43.11511672 574.48009156 -36.68273522 575.57966271 -29.75 576.4375 C26.51325217 582.72077758 84.88874391 571.35975458 135.03027344 545.02978516 C137.04595288 543.97597555 139.07256575 542.94587248 141.1015625 541.91796875 C158.16175428 533.19107037 173.898073 522.76567925 189 511 C190.32150671 509.98032893 191.64312113 508.96079744 192.96484375 507.94140625 C194.2272931 506.9618784 195.48904151 505.9814463 196.75 505 C197.32274658 504.55519287 197.89549316 504.11038574 198.4855957 503.65209961 C201.5202198 501.26537301 204.33506419 498.79430162 207 496 C201.96410437 494.78443899 197.01442099 493.84240195 191.875 493.1875 C148.29978325 487.13016922 104.29122444 470.79735956 69.35546875 443.8125 C67.61880514 442.47616183 65.82327267 441.21551511 64 440 C64 439.34 64 438.68 64 438 C63.17242187 437.64421875 63.17242187 437.64421875 62.328125 437.28125 C59.43225289 435.68754857 57.20487963 433.71082727 54.75 431.5 C53.85796875 430.7059375 52.9659375 429.911875 52.046875 429.09375 C50 427 50 427 50 425 C49.34 425 48.68 425 48 425 C32.93685516 409.09279964 10 378.76014883 10 356 C15.43681163 356.60795018 19.8992243 358.50318884 24.875 360.625 C42.43155983 367.84696319 60.515349 372.55469308 79.22607422 375.63037109 C81 376 81 376 83 377 C85.62627133 377.08667255 88.22562483 377.11560135 90.8515625 377.09765625 C91.62559418 377.0962413 92.39962585 377.09482635 93.19711304 377.09336853 C95.67311442 377.08776403 98.14902588 377.07521083 100.625 377.0625 C102.30208203 377.05748558 103.97916547 377.05292257 105.65625 377.04882812 C109.77086806 377.03779315 113.88541878 377.02052554 118 377 C115.14193201 374.14193201 111.64844483 373.48678106 107.875 372.3125 C81.75688734 363.83775718 58.31926216 350.16144143 37.14453125 332.73828125 C35.02108149 331.01708791 32.84063462 329.41245553 30.625 327.8125 C27.53758388 325.53428569 25.29837343 323.09396424 23 320 C22.34 319.67 21.68 319.34 21 319 C21 318.34 21 317.68 21 317 C20.01 316.67 19.02 316.34 18 316 C15.45296572 313.53214814 13.26688548 310.72466429 11 308 C9.95779297 306.78763672 9.95779297 306.78763672 8.89453125 305.55078125 C-17.17105123 274.68728624 -34.34150625 234.9491325 -32 194 C-31.52851233 191.50726521 -30.88706471 189.38398641 -30 187 C-25.67948476 187.50431101 -23.88312636 188.73222301 -20.875 191.8125 C3.90804127 214.87500517 47.03514555 232.88227087 81 233 C75.21663247 229.58851968 69.43371255 226.20693454 63.5 223.0625 C53.16039271 217.44702363 43.94116825 210.61655073 35 203 C34.2678125 202.3915625 33.535625 201.783125 32.78125 201.15625 C28.75917918 197.75295931 25.22531602 194.16185942 21.83203125 190.1328125 C20.57920019 188.67429276 19.28187514 187.25315015 17.94921875 185.8671875 C-10.57542778 155.9745739 -21.08066754 114.19548145 -21 74 C-20.45277306 52.38799933 -16.22203561 16.22203561 0 0 Z M549.1875 129.0625 C546.3226845 133.73667265 546.528872 138.69361096 547 144 C548.39072883 147.64238503 549.89641763 150.57110945 553 153 C553.66 153 554.32 153 555 153 C555 153.66 555 154.32 555 155 C559.98166505 157.49083253 564.85506639 157.95318315 570.15234375 156.34765625 C574.55942837 154.43545752 577.22930107 152.27966652 579.3125 147.91796875 C581.38758513 142.12895286 581.46810128 137.51518745 579.01953125 131.82421875 C576.67450884 127.62833574 573.41430896 124.78134945 569 123 C560.72478874 122.00881871 554.89921346 122.56296399 549.1875 129.0625 Z " fill="#FEFEFE" transform="translate(200,154)"/>
<path d="M0 0 C0 3 0 3 -1.65234375 4.99291992 C-2.40644531 5.73131104 -3.16054688 6.46970215 -3.9375 7.23046875 C-4.74960937 8.03291016 -5.56171875 8.83535156 -6.3984375 9.66210938 C-7.25695312 10.49548828 -8.11546875 11.32886719 -9 12.1875 C-10.28777344 13.4549707 -10.28777344 13.4549707 -11.6015625 14.74804688 C-13.7278365 16.83888298 -15.86078464 18.92241983 -18 21 C-18 16.81116298 -15.67400903 15.0691572 -12.9375 12.1875 C-12.43887451 11.65286133 -11.94024902 11.11822266 -11.42651367 10.56738281 C-7.83096005 6.75766304 -4.0942029 3.27536232 0 0 Z " fill="#E2E2E3" transform="translate(647,240)"/>
<path d="M0 0 C2.97 0.495 2.97 0.495 6 1 C4.68 1.33 3.36 1.66 2 2 C2.66 5.3 3.32 8.6 4 12 C1.49484216 9.49484216 0.94900914 7.38931835 0 4 C0 2.68 0 1.36 0 0 Z " fill="#DCDDDD" transform="translate(210,510)"/>
<path d="M0 0 C1.98 0 3.96 0 6 0 C6 0.33 6 0.66 6 1 C4.02 1 2.04 1 0 1 C0 0.67 0 0.34 0 0 Z " fill="#FFFFFF" transform="translate(761,309)"/>
<path d="M0 0 C0.66 0.33 1.32 0.66 2 1 C1.01 1 0.02 1 -1 1 C-0.67 0.67 -0.34 0.34 0 0 Z " fill="#FFFFFF" transform="translate(757,278)"/>
<path d="M0 0 C0.99 0.495 0.99 0.495 2 1 C1.01 1.495 1.01 1.495 0 2 C0 1.34 0 0.68 0 0 Z " fill="#FFFFFF" transform="translate(749,297)"/>
<path d="M0 0 C3 1 3 1 3 1 Z " fill="#FFFFFF" transform="translate(762,278)"/>
<path d="" fill="#FFFFFF" transform="translate(0,0)"/>
<path d="" fill="#FFFFFF" transform="translate(0,0)"/>
<path d="" fill="#FFFFFF" transform="translate(0,0)"/>
<path d="" fill="#FFFFFF" transform="translate(0,0)"/>
<path d="" fill="#FFFFFF" transform="translate(0,0)"/>
<path d="" fill="#FFFFFF" transform="translate(0,0)"/>
<path d="" fill="#FFFFFF" transform="translate(0,0)"/>
<path d="" fill="#FFFFFF" transform="translate(0,0)"/>
<path d="" fill="#FFFFFF" transform="translate(0,0)"/>
<path d="" fill="#FFFFFF" transform="translate(0,0)"/>
<path d="" fill="#FFFFFF" transform="translate(0,0)"/>
<path d="" fill="#FFFFFF" transform="translate(0,0)"/>
<path d="" fill="#FFFFFF" transform="translate(0,0)"/>
<path d="" fill="#FFFFFF" transform="translate(0,0)"/>
<path d="" fill="#FFFFFF" transform="translate(0,0)"/>
<path d="" fill="#FFFFFF" transform="translate(0,0)"/>
<path d="" fill="#FFFFFF" transform="translate(0,0)"/>
<path d="" fill="#FFFFFF" transform="translate(0,0)"/>
</svg>
