<svg version="1.1" id="Layer_1" xmlns="http://www.w3.org/2000/svg" xmlns:xlink="http://www.w3.org/1999/xlink" x="0px" y="0px"
	 width="100%" viewBox="0 0 480 480" enable-background="new 0 0 480 480" xml:space="preserve">
<defs>
  <linearGradient id="gradient" x1="0%" y1="0%" x2="100%" y2="100%">
    <stop offset="0%" stop-color="#f7c01e" />
    <stop offset="100%" stop-color="#4c483f" />
    </linearGradient>
</defs>
<path fill="url(#gradient)" opacity="1.000000" stroke="none" 
	d="
M315.002014,360.166779 
	C299.551208,366.739960 283.552307,370.159271 267.724731,374.062103 
	C238.067657,381.375092 213.867020,396.586029 196.435287,421.988525 
	C189.647766,431.879700 182.700134,441.663422 176.061523,451.652985 
	C173.898010,454.908569 171.819824,455.640320 168.212158,454.014557 
	C159.814133,450.229919 151.700531,446.104401 144.938293,439.670288 
	C141.842133,436.724304 139.710266,433.613892 141.198837,429.110046 
	C142.095505,426.397064 140.674652,425.613281 138.229370,425.303955 
	C124.009354,423.505127 115.855865,413.897095 109.115166,402.504578 
	C107.577942,399.906494 107.634682,397.840485 110.745819,396.454773 
	C111.758911,396.003540 112.914482,395.490356 113.284271,393.738312 
	C98.751534,383.493347 95.730568,367.747681 93.325676,351.946564 
	C95.520363,350.366150 96.695351,351.336639 97.874237,351.792969 
	C121.114594,360.789703 144.250992,359.167786 167.151871,350.718140 
	C183.882355,344.545197 198.902695,335.387360 212.116913,323.324951 
	C216.330612,319.478516 219.871445,315.063202 223.303726,310.569458 
	C226.395401,306.521637 225.781616,304.532928 221.013565,303.495117 
	C202.882629,299.548645 186.832321,291.161560 172.518433,279.743439 
	C165.465775,274.117554 158.265884,270.846436 149.393036,268.760376 
	C134.338150,265.220886 122.068863,255.938889 112.051445,244.084167 
	C109.340523,240.876038 105.718513,238.191849 104.575447,233.777115 
	C108.567352,230.258667 114.439056,233.132355 118.946899,228.472275 
	C90.410393,216.699844 71.668793,196.123795 61.327309,166.831787 
	C69.517151,166.006699 75.963722,171.039413 85.040085,170.526657 
	C56.499100,144.622620 44.381554,114.058167 49.854656,77.233330 
	C53.271996,76.165390 54.729446,78.092972 56.350319,79.348061 
	C69.647469,89.644402 82.543266,100.444046 96.988976,109.223221 
	C120.795715,123.691460 146.595993,132.546875 173.849411,137.563782 
	C185.624390,139.731354 197.459991,141.618729 209.158707,144.140656 
	C229.410217,148.506332 243.550522,161.559418 255.506607,177.589752 
	C261.693054,185.884354 268.297150,193.805069 276.800415,199.934113 
	C293.408600,211.905106 310.627655,208.576767 321.769806,191.331451 
	C328.598022,180.763016 333.164612,169.127777 338.163574,157.689346 
	C341.668274,149.670135 346.298462,142.468277 352.565887,136.276947 
	C364.442841,124.544167 383.952728,124.856522 394.593384,132.923416 
	C405.828186,141.440704 417.748383,146.998856 431.475433,149.247986 
	C432.858490,149.474609 434.443085,149.872299 435.399506,151.228790 
	C435.724030,152.910767 434.331573,153.534470 433.411255,154.394333 
	C427.202332,160.195312 421.050140,166.061157 414.712341,171.718643 
	C409.998047,175.926941 407.107483,181.150726 406.465393,187.259048 
	C404.866547,202.469025 403.388977,217.703201 402.386078,232.962051 
	C400.077545,268.084869 389.926788,299.958069 364.684174,325.662079 
	C350.419373,340.187592 334.056610,351.813934 315.002014,360.166779 
z"/>
<path fill="url(#gradient)" opacity="1.000000" stroke="none" 
	d="
M202.058655,132.184418 
	C192.842545,130.338257 184.075760,128.372253 175.231552,126.858505 
	C170.817993,126.103096 168.120071,123.634995 165.969925,120.070709 
	C160.709793,111.351036 157.829102,101.757622 156.928650,91.770103 
	C155.100250,71.489792 158.278000,51.956173 167.388580,33.573143 
	C168.108047,32.121437 168.626617,30.445524 170.255768,29.721348 
	C171.539429,29.754137 172.020798,30.669893 172.502197,31.531660 
	C191.613281,65.743851 218.379913,92.568283 251.410690,113.358971 
	C263.473572,120.951752 274.704773,129.540466 282.884918,141.434509 
	C292.979187,156.111755 297.035370,172.464783 295.394714,190.165009 
	C294.885986,195.653320 293.025085,196.445816 288.154480,193.778473 
	C278.792969,188.651749 272.200256,180.621841 266.677063,171.876358 
	C251.674622,148.121338 229.191635,136.843109 202.058655,132.184418 
z"/>
</svg>